# xmcd
#
# Track frame offsets:
#	150
#	17606
#	37353
#	57342
#	74469
#	89059
#	106006
#	123953
#	142990
#	162761
#	177135
#	191712
#	204979
#	220758
#	237038
#	252411
#	273183
#	290322
#	307001
#	324925
#
# Disc length: 4570 seconds
#
# Revision: 0
# Processed by: cddbd v1.5PL3 Copyright (c) Steve Scherf et al.
# Submitted via: dBpowerAMP V4.0
#
DISCID=1f11d814
DTITLE=Zezé Di Camargo e Luciano - As 20 Mais - Vol. 4
DYEAR=2004
DGENRE=Country
TTITLE0=Pra Mudar a Minha Vida
TTITLE1=Bebedeira
TTITLE2=Cara ou Coroa
TTITLE3=Deus
TTITLE4=Entre Ele e Eu
TTITLE5=Esse Cara Não Existe Mais
TTITLE6=Galera Felicidade
TTITLE7=Irmão da Lua-Amigo das Entrelas
TTITLE8=Melhor Que Antes
TTITLE9=Meu Coração Mandou
TTITLE10=Mexe Que Mexe
TTITLE11=Muda de Vida
TTITLE12=Nosso Amor é Ouro
TTITLE13=Pra Sempre
TTITLE14=Quem Sou Eu Sem Ela
TTITLE15=Sem Medo de Ser Feliz
TTITLE16=Toma Juizo
TTITLE17=Toneladas de Paixão
TTITLE18=Vem Cuidar de Mim
TTITLE19=Você Vai Ver
EXTD=
EXTT0=
EXTT1=
EXTT2=
EXTT3=
EXTT4=
EXTT5=
EXTT6=
EXTT7=
EXTT8=
EXTT9=
EXTT10=
EXTT11=
EXTT12=
EXTT13=
EXTT14=
EXTT15=
EXTT16=
EXTT17=
EXTT18=
EXTT19=
PLAYORDER=
